<?xml version="1.0" encoding="UTF-8" standalone="no"?>
<svg
   xmlns:dc="http://purl.org/dc/elements/1.1/"
   xmlns:cc="http://creativecommons.org/ns#"
   xmlns:rdf="http://www.w3.org/1999/02/22-rdf-syntax-ns#"
   xmlns:svg="http://www.w3.org/2000/svg"
   xmlns="http://www.w3.org/2000/svg"
   xmlns:sodipodi="http://sodipodi.sourceforge.net/DTD/sodipodi-0.dtd"
   xmlns:inkscape="http://www.inkscape.org/namespaces/inkscape"
   version="1.0"
   width="1248.000000pt"
   height="981.000000pt"
   viewBox="0 0 1248.000000 981.000000"
   preserveAspectRatio="xMidYMid meet"
   id="svg2"
   inkscape:version="0.91 r13725"
   sodipodi:docname="Harald (1).svg">
  <defs
     id="defs28" />
  <sodipodi:namedview
     pagecolor="#ffffff"
     bordercolor="#666666"
     borderopacity="1"
     objecttolerance="10"
     gridtolerance="10"
     guidetolerance="10"
     inkscape:pageopacity="0"
     inkscape:pageshadow="2"
     inkscape:window-width="1089"
     inkscape:window-height="611"
     id="namedview26"
     showgrid="false"
     inkscape:zoom="0.19245668"
     inkscape:cx="26.583686"
     inkscape:cy="613.125"
     inkscape:window-x="0"
     inkscape:window-y="0"
     inkscape:window-maximized="0"
     inkscape:current-layer="svg2" />
  <metadata
     id="metadata4">
Created by potrace 1.13, written by Peter Selinger 2001-2015
<rdf:RDF>
  <cc:Work
     rdf:about="">
    <dc:format>image/svg+xml</dc:format>
    <dc:type
       rdf:resource="http://purl.org/dc/dcmitype/StillImage" />
  </cc:Work>
</rdf:RDF>
</metadata>
  <g
     transform="translate(0.000000,981.000000) scale(0.100000,-0.100000)"
     fill="#000000"
     stroke="none"
     id="g6"
     style="fill:#002e53;fill-opacity:1">
    <path
       d="M0 4905 l0 -4905 6240 0 6240 0 0 4905 0 4905 -6240 0 -6240 0 0 -4905z m6190 3370 c21 -19 116 -22 310 -11 128 7 157 5 248 -13 57 -12 125 -21 151 -21 26 0 67 -7 92 -15 24 -8 94 -19 154 -23 102 -8 114 -11 160 -43 27 -19 55 -41 62 -49 7 -8 13 -12 13 -7 0 4 17 0 38 -9 20 -9 51 -20 67 -24 17 -3 29 -12 28 -18 -2 -7 5 -12 15 -12 28 1 212 -94 212 -109 0 -8 3 -12 6 -8 15 15 84 -40 84 -67 0 -8 -70 34 -103 61 -16 13 -34 23 -40 23 -7 0 -24 6 -39 14 -39 21 -72 26 -180 28 -66 1 -102 -2 -110 -10 -9 -9 -8 -12 8 -12 11 0 25 -5 32 -12 6 -6 22 -12 35 -12 14 -1 44 -11 68 -23 63 -30 123 -57 129 -58 3 0 20 -10 38 -23 17 -13 32 -20 32 -16 0 4 8 -2 18 -12 9 -10 46 -43 82 -73 89 -74 89 -74 57 -60 -49 22 -53 -3 -7 -51 22 -23 40 -49 40 -57 0 -7 10 -27 21 -43 13 -17 19 -35 15 -45 -4 -12 -2 -16 8 -12 10 4 16 -5 21 -29 4 -22 10 -32 17 -28 7 5 9 2 5 -8 -3 -9 -3 -19 1 -23 4 -4 7 -20 8 -37 0 -22 -6 -33 -23 -41 -26 -12 -32 -33 -7 -23 16 6 43 -18 43 -39 1 -5 -8 1 -18 13 -17 23 -18 23 -36 6 -10 -11 -13 -20 -7 -22 6 -2 8 -10 5 -18 -3 -8 1 -14 11 -14 8 0 13 -6 10 -13 -2 -7 5 -22 16 -34 11 -12 20 -33 20 -47 0 -13 4 -26 9 -28 14 -5 25 -88 11 -88 -7 0 -6 -8 4 -22 22 -31 21 -59 -1 -51 -10 4 -12 8 -6 10 13 5 6 33 -8 33 -4 0 -5 -7 -2 -17 5 -12 3 -14 -8 -8 -12 8 -12 6 0 -8 12 -15 11 -20 -4 -37 -10 -11 -13 -20 -7 -20 6 0 12 6 15 13 7 17 37 -23 35 -48 -1 -17 -1 -17 -5 3 -4 22 -11 26 -50 23 -11 -1 -24 3 -28 8 -3 6 -15 11 -27 11 -15 0 -19 5 -15 19 5 21 -12 23 -35 3 -12 -10 -17 -7 -27 14 -6 14 -8 30 -5 36 4 7 2 8 -4 4 -7 -4 -12 -2 -12 3 0 6 -5 11 -11 11 -14 0 -1 -42 18 -57 8 -6 13 -18 11 -25 -6 -18 19 -41 34 -32 10 5 10 4 2 -5 -17 -18 -54 3 -55 32 -1 18 -2 19 -6 4 -3 -10 3 -27 13 -38 19 -21 8 -43 -27 -54 -11 -4 -17 -10 -14 -15 3 -4 -2 -13 -10 -20 -24 -20 -19 10 7 37 19 21 20 23 4 23 -16 0 -17 2 -5 16 12 15 11 16 -9 10 -15 -5 -22 -3 -22 5 0 7 -3 10 -6 6 -3 -3 -24 8 -47 24 -22 16 -42 27 -44 25 -2 -2 -1 -16 3 -30 4 -19 11 -25 23 -22 9 3 23 1 31 -4 12 -8 12 -10 1 -10 -9 0 -10 -4 -4 -12 12 -16 15 -58 4 -58 -4 0 -23 5 -40 11 -26 9 -32 16 -29 33 5 27 -20 51 -52 51 -20 0 -30 10 -47 47 -16 34 -20 53 -14 70 7 18 4 25 -17 35 -33 17 -60 8 -68 -23 -3 -13 -12 -24 -19 -24 -8 0 -11 -8 -8 -20 3 -11 9 -18 13 -15 4 3 11 -3 14 -12 6 -15 -8 -32 -26 -33 -7 0 -28 33 -28 45 0 3 5 3 10 0 15 -9 12 2 -6 19 -14 15 -14 16 1 16 10 0 13 5 9 12 -5 8 -2 9 10 5 9 -4 15 -3 11 2 -3 5 1 12 7 14 10 4 9 8 -2 16 -11 8 -16 7 -18 -2 -2 -8 -15 -12 -36 -9 -19 2 -43 -1 -55 -7 -17 -9 -24 -8 -40 8 -17 17 -18 21 -5 32 12 10 17 7 16 -11 0 -3 8 -6 18 -6 10 0 17 4 14 7 -2 4 0 10 6 14 5 3 10 1 10 -6 0 -7 3 -9 6 -6 4 3 16 1 27 -5 17 -8 19 -8 14 5 -5 13 1 15 31 12 31 -3 33 -2 16 6 -15 8 -20 18 -17 33 4 17 -1 25 -16 29 -23 6 -27 -3 -9 -21 9 -9 9 -12 0 -12 -7 0 -15 7 -18 15 -5 12 -10 13 -20 4 -11 -9 -15 -7 -20 5 -4 10 -13 15 -21 12 -9 -4 -13 0 -11 11 2 10 -5 19 -14 21 -10 2 -18 -1 -18 -7 0 -6 6 -11 12 -11 7 0 1 -11 -14 -25 -27 -25 -44 -33 -34 -16 6 9 -44 47 -56 43 -12 -3 -10 16 4 37 16 26 3 55 -22 48 -22 -6 -101 10 -110 21 -3 4 -18 18 -34 30 -21 16 -32 19 -42 11 -9 -7 -24 -7 -51 0 -68 19 -64 11 27 -52 22 -16 40 -34 40 -41 0 -8 10 -16 21 -19 15 -4 20 -11 16 -21 -4 -9 -2 -16 3 -16 5 0 7 -7 4 -15 -4 -8 -1 -22 6 -29 13 -17 16 -59 8 -136 -8 -74 -25 -109 -49 -103 -10 3 -19 11 -19 18 0 7 -6 15 -12 18 -9 3 -5 10 10 22 12 9 20 21 17 26 -3 5 0 6 8 3 9 -3 19 6 27 26 11 28 11 33 -9 54 -11 12 -21 34 -21 49 0 18 -5 27 -15 27 -9 0 -18 7 -22 17 -9 22 -74 83 -84 78 -3 -3 -13 3 -20 12 -12 14 -12 16 1 9 13 -6 -19 24 -56 54 -7 5 -38 7 -70 5 -86 -4 -86 -4 -79 -15 3 -5 -3 -10 -15 -10 -12 0 -19 -4 -16 -8 2 -4 -4 -9 -15 -9 -31 -3 -119 -92 -119 -122 0 -21 -2 -23 -10 -11 -8 13 -10 13 -10 -2 0 -9 5 -18 11 -20 21 -7 0 -43 -25 -43 -15 0 -22 5 -19 13 3 6 0 12 -6 12 -6 0 -11 -4 -11 -10 0 -5 -14 -10 -30 -10 -30 0 -30 0 -14 25 9 14 14 28 11 31 -3 4 16 29 44 56 27 28 49 53 49 55 0 19 49 66 83 82 64 28 76 31 136 37 66 7 86 20 45 29 -68 14 -102 26 -114 40 -7 8 -16 12 -21 9 -11 -7 -99 36 -99 48 0 5 -4 6 -10 3 -5 -3 -10 -2 -10 2 0 5 -8 13 -18 20 -15 9 -28 6 -64 -12 -29 -15 -50 -20 -59 -14 -10 6 -10 9 -1 9 22 0 13 20 -10 21 -13 0 -18 3 -11 5 7 3 9 12 6 20 -3 8 1 14 11 14 9 0 16 5 16 11 0 6 6 9 13 6 7 -3 12 4 12 19 0 13 -2 25 -5 25 -3 1 -15 3 -26 4 -12 1 -26 5 -33 9 -6 4 -12 2 -12 -3 -1 -6 -3 -15 -4 -21 -1 -5 -3 -14 -4 -20 0 -5 -8 -10 -16 -10 -9 0 -15 -9 -15 -25 0 -16 -11 -32 -30 -47 -16 -12 -30 -25 -30 -28 0 -9 69 1 76 11 11 18 35 8 53 -21 10 -16 21 -27 24 -23 4 3 7 1 7 -6 0 -7 5 -9 12 -5 7 4 8 3 4 -5 -9 -14 37 -61 60 -61 7 0 24 -10 36 -22 l22 -22 -24 -6 c-14 -4 -47 0 -75 8 -48 14 -50 13 -69 -9 -12 -16 -20 -20 -23 -11 -3 6 -10 12 -18 12 -7 0 -33 23 -59 51 -39 42 -49 49 -61 39 -8 -7 -15 -23 -15 -36 0 -32 -18 -31 -26 2 -4 17 -2 29 7 35 7 4 11 10 8 14 -3 3 -16 -4 -29 -15 -13 -11 -30 -20 -39 -20 -9 0 -27 -3 -40 -7 -22 -6 -23 -4 -17 18 4 13 8 31 8 41 -1 9 10 19 24 22 14 4 22 11 19 15 -3 5 1 11 7 14 8 3 3 9 -12 15 -18 7 -26 6 -28 -2 -1 -6 -12 -18 -24 -25 -18 -11 -23 -11 -33 2 -9 12 -15 13 -23 5 -13 -13 -22 -7 -26 15 -1 8 -8 22 -15 31 -15 18 -5 44 11 28 12 -12 58 13 58 32 0 17 -56 18 -70 1 -11 -13 -16 -12 -41 6 -16 11 -29 27 -29 36 0 11 -3 13 -13 5 -14 -12 -11 -102 5 -102 5 0 6 -4 3 -10 -8 -13 -48 -13 -62 1 -16 16 -35 1 -28 -21 3 -10 1 -21 -4 -25 -7 -4 -6 -14 1 -30 9 -19 14 -22 25 -14 10 9 13 8 13 -5 0 -9 6 -15 13 -13 6 1 12 -6 12 -15 0 -9 4 -20 9 -25 5 -4 6 -3 2 4 -8 14 10 27 19 13 8 -13 -7 -35 -25 -35 -8 0 -18 -15 -24 -32 -5 -18 -14 -33 -19 -33 -6 0 0 -12 14 -27 13 -14 18 -23 12 -19 -9 5 -11 2 -7 -7 7 -18 66 -30 104 -22 16 3 31 2 35 -4 3 -6 1 -11 -6 -11 -8 0 -8 -4 1 -15 7 -8 19 -15 26 -15 8 0 11 -6 7 -17 -5 -12 -3 -14 7 -8 10 6 12 4 7 -9 -5 -14 -3 -17 8 -12 17 6 39 -28 31 -50 -8 -21 20 -29 51 -15 29 13 41 8 26 -11 -18 -22 -22 -68 -7 -68 18 0 17 -20 -1 -44 -8 -11 -21 -16 -30 -13 -11 5 -15 0 -15 -18 0 -27 -27 -34 -48 -13 -9 9 -13 7 -18 -6 -5 -13 -9 -15 -15 -5 -11 18 -69 19 -69 1 0 -12 -3 -12 -15 -2 -12 10 -18 7 -32 -19 -22 -37 -35 -43 -69 -31 -19 8 -25 7 -22 -2 7 -21 -35 -47 -66 -41 -25 5 -27 3 -21 -16 4 -14 2 -21 -7 -21 -10 0 -9 -3 2 -10 22 -14 6 -22 -24 -11 -23 9 -26 8 -26 -10 0 -15 -5 -19 -15 -15 -9 3 -15 0 -15 -9 0 -19 -32 -27 -63 -16 -19 7 -27 6 -30 -3 -4 -10 1 -12 14 -9 10 3 19 0 19 -6 0 -6 -4 -11 -9 -11 -5 0 -22 -5 -38 -12 -15 -6 -32 -12 -38 -13 -5 0 -9 -6 -7 -13 1 -7 -5 -12 -14 -12 -14 0 -15 -2 -3 -17 12 -15 12 -16 -4 -10 -10 4 -25 7 -33 7 -11 0 -13 6 -9 19 5 16 2 19 -17 17 -13 -1 -31 -6 -40 -10 -15 -7 -16 -10 -3 -23 13 -12 13 -16 1 -29 -18 -18 -22 -18 -29 0 -4 11 -1 13 11 9 14 -5 15 -3 5 7 -14 15 -43 22 -43 11 0 -4 -18 -8 -41 -9 -32 -2 -40 1 -36 12 3 8 -1 20 -8 26 -18 15 -10 32 13 29 32 -3 40 1 45 21 3 13 17 22 36 26 16 4 29 9 28 13 -3 13 25 51 73 100 28 28 46 51 41 51 -5 0 -12 7 -15 16 -4 12 -1 14 14 9 23 -7 26 5 8 24 -11 10 -10 11 5 6 22 -9 22 -3 -3 25 -11 13 -20 29 -20 37 0 7 -9 13 -19 13 -35 0 -53 11 -41 25 9 11 7 12 -8 8 -11 -2 -23 0 -26 6 -4 6 0 11 8 11 9 0 16 4 16 9 0 5 9 13 20 16 35 11 22 22 -35 29 -64 7 -105 24 -105 43 0 7 0 16 -1 20 0 4 5 9 12 12 6 2 9 -1 5 -7 -7 -11 63 -36 73 -27 8 9 -11 21 -62 39 -48 18 -49 18 -71 -3 -24 -22 -61 -19 -52 4 2 6 0 18 -4 26 -5 8 -4 19 2 26 13 16 17 14 -59 17 -35 1 -66 5 -69 9 -4 4 -2 7 4 7 7 0 12 7 12 15 0 11 -12 13 -59 10 -32 -2 -75 0 -96 5 -46 10 -105 2 -105 -15 0 -12 -29 -30 -36 -22 -2 1 3 16 11 31 8 16 15 35 15 42 0 8 3 14 8 14 4 0 25 17 47 38 57 55 72 60 169 67 48 4 99 10 115 15 41 12 161 -10 161 -30 0 -4 12 -11 26 -14 16 -4 29 -17 36 -36 5 -17 16 -30 24 -30 8 0 14 -3 14 -7 0 -5 13 -17 30 -28 20 -13 25 -22 17 -27 -7 -5 -2 -8 13 -8 17 0 21 -3 12 -8 -7 -5 -10 -16 -6 -25 7 -19 13 -21 34 -7 13 9 13 10 0 10 -12 0 -12 2 -2 9 12 7 12 12 1 30 -8 11 -17 21 -20 21 -4 0 -10 12 -13 26 -7 28 -28 54 -44 54 -5 0 -12 13 -15 29 -4 19 -15 32 -36 41 -17 7 -31 18 -31 25 0 20 -89 37 -165 31 -46 -3 -74 -1 -84 7 -11 10 -13 8 -7 -8 5 -19 2 -20 -34 -17 -27 3 -44 -1 -55 -12 -9 -9 -22 -17 -28 -17 -7 -1 -23 -3 -36 -4 -13 -1 -28 -10 -33 -19 -8 -15 -38 -23 -38 -10 0 3 8 22 19 42 10 20 26 53 35 72 47 105 58 127 71 150 8 14 15 33 15 43 0 9 3 17 8 17 4 0 16 19 27 43 19 40 129 157 148 157 5 0 23 12 40 26 17 15 65 42 107 62 41 19 77 38 80 42 10 11 149 90 160 90 6 0 31 14 55 30 24 17 53 30 65 30 11 0 32 8 46 17 23 15 50 19 167 26 15 1 27 5 27 10 0 4 15 7 33 7 17 0 57 7 87 15 30 8 74 15 97 15 23 0 45 5 48 10 9 15 46 12 65 -5z m648 -1233 c22 -19 45 -79 36 -93 -3 -5 2 -9 10 -9 9 0 16 -4 16 -10 0 -5 -4 -10 -9 -10 -5 0 -4 -11 2 -25 7 -14 19 -25 27 -25 9 0 11 -3 4 -8 -18 -12 -23 -39 -14 -71 7 -24 5 -29 -6 -24 -8 3 -14 0 -14 -6 0 -6 5 -11 10 -11 7 0 7 -8 -1 -22 l-12 -23 23 20 c21 18 23 18 17 2 -4 -10 -7 -32 -7 -48 0 -18 -5 -29 -14 -29 -7 0 -16 -12 -19 -28 -3 -15 -15 -38 -26 -51 -17 -20 -23 -22 -36 -11 -8 7 -16 10 -16 6 -1 -5 -3 -14 -8 -58 -1 -8 -5 -6 -12 4 -7 13 -5 29 9 60 40 90 47 115 32 133 -11 13 -10 15 3 10 21 -9 34 16 13 27 -9 5 -14 14 -10 19 3 6 7 26 8 44 1 26 -3 35 -19 40 -20 5 -20 5 0 17 11 6 21 12 23 14 2 1 -1 11 -7 22 -7 14 -17 18 -31 15 -11 -3 -20 0 -20 6 0 6 -5 10 -11 9 -6 -2 -14 3 -17 11 -3 9 0 11 8 6 10 -6 11 3 7 40 -4 26 -11 53 -16 59 -17 21 54 19 77 -2z m-2117 -220 c12 -12 18 -27 15 -43 -3 -13 -5 -28 -5 -33 -1 -4 -8 -6 -16 -2 -13 4 -14 2 -5 -14 8 -14 8 -20 0 -20 -6 0 -8 -5 -4 -12 4 -7 3 -8 -5 -4 -6 4 -18 1 -26 -8 -17 -17 -20 -46 -5 -46 6 0 10 7 10 16 0 14 3 14 15 4 12 -10 15 -10 15 1 0 9 4 8 13 -3 6 -9 23 -18 37 -20 18 -2 28 -12 35 -34 6 -17 16 -38 24 -47 7 -9 11 -24 7 -32 -4 -10 1 -15 14 -15 11 0 20 -5 20 -11 0 -5 5 -7 10 -4 9 6 14 -8 11 -27 0 -5 10 -8 24 -8 14 0 36 -6 48 -14 25 -16 127 -18 127 -3 0 5 12 21 26 34 l26 24 19 -22 c11 -12 22 -19 27 -15 4 4 -2 14 -12 22 -26 18 -10 34 27 27 31 -6 38 -42 12 -63 -11 -9 -12 -17 -4 -31 5 -10 14 -19 20 -19 6 0 27 -13 47 -30 45 -36 102 -51 102 -26 0 9 0 19 0 24 0 4 -4 8 -10 8 -5 1 -14 2 -20 3 -22 2 -8 17 27 28 24 7 42 8 49 2 14 -12 44 -1 44 16 0 14 38 27 53 18 6 -3 24 -7 40 -9 22 -1 26 1 16 8 -11 8 -10 9 4 4 10 -3 23 -6 28 -6 6 0 9 -6 8 -12 -4 -29 2 -40 17 -34 8 3 22 -1 30 -9 9 -8 24 -15 35 -15 12 0 17 -4 14 -11 -4 -6 2 -19 14 -30 20 -19 26 -15 22 19 -1 6 3 12 9 12 6 0 8 5 5 10 -4 6 -3 10 2 9 22 -4 33 3 33 19 0 14 2 14 9 3 6 -9 16 -11 27 -6 13 5 15 9 7 12 -7 3 -13 9 -13 15 0 6 7 8 15 5 8 -4 17 -2 20 3 3 5 -3 10 -12 13 -10 2 -1 4 20 3 25 0 36 -4 33 -12 -2 -6 1 -17 7 -23 8 -8 7 -11 -5 -11 -9 0 -18 6 -21 13 -2 6 -8 9 -12 4 -10 -9 24 -36 46 -37 9 0 21 -12 28 -26 7 -17 17 -24 27 -20 12 5 14 1 10 -17 l-6 -22 11 22 c7 13 20 25 30 28 9 3 20 12 23 20 4 12 2 13 -17 2 -12 -6 -25 -16 -29 -22 -4 -6 -8 -1 -9 10 0 11 -3 14 -6 7 -6 -15 -23 -6 -23 14 0 8 7 14 15 14 21 0 19 20 -2 21 -15 0 -15 2 2 8 15 6 22 3 27 -10 9 -23 34 -25 42 -3 4 9 2 13 -5 8 -7 -4 -9 1 -7 12 2 12 11 18 23 17 11 -1 26 0 34 2 11 4 11 8 0 22 -13 15 -12 15 8 5 26 -14 33 -15 33 -3 0 5 -9 11 -21 14 -12 3 -18 10 -14 16 3 6 11 8 17 5 6 -4 8 -2 4 4 -3 5 -3 12 1 15 5 2 3 3 -4 1 -6 -1 -19 6 -29 17 -9 10 -12 19 -6 19 6 0 12 15 14 33 2 24 7 31 21 29 9 -2 17 2 17 8 0 5 7 10 15 10 8 0 15 5 15 12 0 6 3 8 7 5 3 -4 -2 -15 -11 -26 -24 -26 -5 -34 34 -14 30 14 35 15 59 0 33 -20 32 -28 -10 -50 -32 -17 -51 -57 -27 -57 5 0 7 -7 4 -16 -5 -13 -2 -15 13 -11 17 4 18 2 8 -14 -7 -11 -20 -22 -29 -25 -21 -6 -23 -20 -5 -28 6 -4 3 -5 -8 -3 -15 3 -21 -1 -21 -14 0 -11 6 -19 13 -19 7 0 13 -4 13 -10 0 -5 -5 -10 -11 -10 -6 0 -9 -5 -7 -12 6 -18 59 -29 96 -19 18 5 30 6 27 1 -3 -5 3 -14 12 -20 12 -8 14 -13 6 -16 -8 -4 -9 -13 -4 -27 4 -12 6 -29 3 -37 -4 -12 -3 -13 10 -3 13 11 15 6 14 -40 -1 -28 -5 -57 -9 -64 -4 -7 -1 -16 9 -21 11 -6 13 -11 5 -16 -6 -4 -11 -19 -10 -34 0 -15 3 -21 6 -14 2 6 12 12 21 12 15 0 15 -2 2 -10 -13 -9 -7 -14 13 -11 12 2 8 -37 -5 -41 -9 -3 -8 -10 5 -22 17 -18 14 -42 -4 -30 -5 3 -22 -2 -37 -12 -26 -17 -27 -17 -12 2 8 10 20 22 25 26 6 5 6 8 -2 8 -6 0 -15 -4 -18 -10 -3 -5 -13 -10 -21 -10 -8 0 -12 5 -9 10 3 6 0 10 -8 10 -7 0 -19 -11 -26 -23 -14 -27 -41 -32 -42 -8 0 9 -5 4 -11 -11 -6 -17 -17 -28 -29 -28 -18 0 -23 -9 -20 -40 1 -10 -1 -11 -6 -4 -4 6 -25 17 -46 23 -32 11 -37 16 -31 34 6 19 5 20 -10 8 -14 -12 -16 -11 -16 3 0 9 -4 16 -10 16 -5 0 -10 -9 -10 -19 0 -11 -3 -28 -6 -38 -4 -14 -4 -15 4 -4 12 17 66 6 59 -12 -2 -7 -10 -11 -16 -9 -15 3 -14 -25 2 -31 6 -3 2 -6 -11 -6 -12 -1 -25 -8 -29 -17 -4 -12 -9 -8 -21 15 -8 17 -18 28 -23 25 -5 -3 -9 2 -9 10 0 9 -4 16 -10 16 -5 0 -10 -5 -10 -11 0 -16 26 -39 35 -31 5 4 5 1 1 -6 -5 -8 -16 -10 -29 -6 -19 6 -20 5 -9 -9 7 -8 21 -13 32 -10 16 4 20 0 20 -21 0 -14 5 -26 11 -26 5 0 7 5 4 10 -3 6 1 10 9 10 41 0 3 -32 -40 -35 -18 -1 -20 2 -11 17 16 25 -2 37 -20 13 -15 -19 -15 -19 -8 4 6 20 4 23 -9 18 -9 -4 -16 -3 -16 2 0 12 -34 10 -42 -3 -14 -21 -8 -28 17 -22 20 5 23 3 18 -11 -4 -10 -2 -14 5 -9 6 3 14 1 18 -5 4 -7 3 -9 -4 -5 -6 3 -13 2 -17 -4 -3 -5 -2 -10 4 -10 9 0 33 -60 30 -76 -4 -25 3 -44 16 -44 8 0 15 5 15 11 0 5 5 7 10 4 6 -4 8 -10 5 -15 -3 -4 -2 -10 2 -13 5 -2 3 -2 -4 -1 -6 2 -17 -4 -23 -12 -7 -8 -20 -14 -29 -14 -24 0 -44 -16 -36 -29 4 -8 11 -9 19 -2 7 6 18 6 25 1 8 -4 20 -6 27 -3 15 6 54 -14 54 -28 0 -6 -9 -8 -20 -4 -14 4 -20 2 -18 -7 2 -7 -2 -12 -9 -11 -6 2 -15 -7 -18 -18 -4 -11 -14 -19 -23 -18 -9 1 -20 1 -24 0 -5 0 -11 -1 -14 0 -4 0 -11 -5 -15 -13 -7 -10 -9 -10 -9 0 0 6 -12 12 -26 12 -22 0 -25 -2 -14 -15 11 -13 8 -15 -16 -15 -22 0 -25 -3 -14 -10 13 -8 12 -12 -4 -27 -16 -16 -18 -16 -13 -2 4 13 1 16 -16 11 -20 -5 -21 -4 -7 13 13 17 13 18 0 13 -21 -8 -60 9 -60 26 0 8 -12 24 -27 35 -26 19 -26 20 -7 21 12 0 27 -7 35 -16 7 -8 21 -13 31 -11 11 3 18 0 18 -9 0 -8 4 -14 8 -14 5 0 9 13 9 30 0 16 -4 27 -9 24 -4 -3 -8 4 -8 16 0 11 -6 20 -12 18 -39 -7 -83 36 -56 54 17 11 28 10 28 -2 0 -5 7 -7 15 -4 8 4 15 12 15 20 0 8 5 14 10 14 6 0 10 6 8 13 -2 6 1 13 6 14 5 0 14 9 19 18 7 13 5 20 -7 27 -9 5 -16 14 -16 20 0 7 6 6 15 -2 22 -18 27 -8 12 23 -11 26 -47 38 -47 17 0 -7 -7 -7 -20 0 -11 5 -29 15 -40 20 -14 7 -20 7 -20 0 0 -6 6 -13 13 -16 7 -2 14 -16 15 -30 1 -14 -2 -23 -8 -19 -6 3 -10 2 -10 -4 0 -7 -8 -7 -22 -2 -14 5 -33 4 -46 -2 -20 -9 -26 -8 -34 7 -6 10 -13 14 -17 10 -11 -15 -53 -36 -59 -29 -4 3 -1 9 5 13 6 4 13 18 14 32 2 13 15 30 27 36 16 8 20 14 12 19 -7 4 -16 2 -20 -5 -5 -8 -10 -9 -14 -2 -3 6 -1 12 5 14 14 5 0 38 -17 38 -7 0 -20 10 -28 21 l-14 21 -22 -20 c-16 -15 -18 -22 -9 -28 7 -4 14 -3 17 4 2 7 8 12 14 12 6 0 8 -7 5 -15 -4 -8 -2 -17 4 -20 13 -9 1 -25 -14 -19 -8 3 -13 -3 -13 -15 0 -11 4 -19 9 -18 5 1 11 -6 12 -15 2 -12 -3 -18 -16 -18 -11 0 -17 5 -14 10 3 6 -3 10 -13 10 -12 0 -22 -9 -26 -22 -4 -18 -8 -20 -18 -10 -6 6 -21 12 -32 12 -16 0 -17 3 -8 12 23 23 12 28 -17 7 -16 -12 -34 -18 -40 -15 -15 10 -14 -7 1 -22 15 -15 32 -16 23 -2 -3 6 0 10 9 10 19 0 25 -19 15 -54 -6 -19 -5 -32 2 -36 5 -4 -3 -7 -20 -7 -20 0 -28 4 -24 14 3 7 0 20 -7 28 -6 8 -10 18 -7 22 10 16 -38 68 -63 68 -19 1 -24 5 -22 20 3 16 1 18 -9 8 -7 -7 -17 -13 -23 -13 -6 0 -5 5 2 12 8 8 9 15 1 25 -14 16 -5 17 22 3 13 -7 19 -7 19 0 0 5 -7 10 -15 10 -20 0 -14 30 13 65 14 17 26 25 30 19 11 -16 41 -24 48 -13 3 5 0 16 -6 24 -10 12 -9 15 10 15 15 0 20 -4 17 -15 -4 -8 -2 -17 4 -21 6 -3 8 -12 6 -18 -3 -7 0 -13 7 -13 6 0 12 8 12 18 0 10 -4 15 -9 12 -5 -3 -8 0 -6 6 5 15 24 11 24 -5 0 -6 8 -19 18 -28 16 -16 18 -16 23 -1 4 9 13 14 20 11 9 -3 14 1 14 12 0 13 2 14 9 3 10 -15 34 -5 28 12 -5 17 -35 17 -42 0 -5 -14 -7 -14 -24 1 -9 9 -21 13 -24 9 -4 -3 -7 6 -7 21 0 21 -4 27 -15 22 -8 -3 -15 -1 -15 4 0 6 -9 10 -20 10 -11 0 -20 5 -20 10 0 6 -4 10 -10 10 -5 0 -10 -7 -10 -15 0 -8 -7 -15 -15 -15 -8 0 -22 -16 -31 -36 -11 -23 -22 -33 -31 -30 -8 4 -19 6 -24 6 -5 0 -9 4 -9 9 0 5 8 7 19 4 24 -6 36 13 21 32 -6 8 -9 19 -5 25 3 6 -3 10 -14 10 -16 0 -20 6 -18 22 1 15 -5 26 -20 33 -26 11 -30 25 -9 25 8 0 18 5 21 10 10 16 -13 39 -34 33 -11 -3 -28 4 -40 16 -22 22 -32 26 -30 14 4 -23 -4 -21 -32 6 -17 17 -37 31 -46 31 -9 0 -13 6 -10 15 4 8 2 17 -3 20 -6 4 -10 14 -10 23 0 10 -8 25 -17 34 -31 29 -40 43 -35 57 3 8 0 11 -6 7 -6 -3 -13 -2 -17 4 -4 6 -11 8 -16 4 -10 -5 -49 31 -49 46 0 14 -61 3 -81 -16 -16 -14 -23 -16 -26 -6 -4 9 -8 10 -18 2 -11 -9 -13 -4 -11 25 3 26 0 35 -10 31 -7 -3 -14 3 -16 12 -3 10 -6 3 -9 -14 -4 -23 -2 -31 7 -27 9 3 12 -4 11 -23 -2 -27 -1 -28 63 -31 35 -1 69 -9 76 -15 16 -18 26 -66 15 -72 -5 -3 -8 -21 -6 -40 1 -23 -2 -33 -10 -29 -7 2 -19 -2 -27 -10 -17 -18 -77 -17 -99 2 -21 17 -91 23 -82 7 4 -6 -1 -5 -10 3 -15 12 -20 12 -35 -1 -22 -19 -119 -33 -124 -18 -2 8 -12 8 -33 -1 -17 -7 -48 -13 -70 -15 -69 -5 -105 -11 -112 -17 -3 -4 -1 -7 5 -7 7 0 12 -5 12 -10 0 -7 -6 -7 -20 0 -11 6 -17 16 -14 25 5 11 1 14 -12 9 -14 -4 -15 -3 -6 3 7 6 14 21 16 34 5 35 35 99 46 99 6 0 10 11 10 25 0 14 3 25 8 25 4 0 32 34 62 75 30 41 58 75 63 75 4 0 6 4 2 9 -9 16 43 103 103 170 80 90 189 191 205 191 5 0 5 5 2 10 -10 16 4 11 26 -8z m3179 -110 c18 -16 20 -21 7 -16 -12 4 -17 2 -15 -7 2 -9 -4 -13 -14 -11 -26 4 -24 -44 2 -58 11 -6 20 -16 20 -22 0 -6 -8 -4 -18 5 -10 10 -22 14 -25 10 -4 -3 -7 -2 -7 4 0 6 -14 16 -30 22 -18 6 -28 6 -25 1 4 -6 -1 -10 -10 -10 -11 0 -15 -5 -12 -14 6 -14 -10 -36 -26 -36 -5 0 -7 10 -4 21 4 17 3 19 -6 10 -18 -18 -27 -13 -27 14 0 18 5 25 19 25 14 0 17 6 14 24 -3 13 0 32 6 43 10 17 11 17 17 -4 7 -26 33 -38 48 -22 8 9 7 11 -5 6 -15 -5 -16 -2 -10 45 2 12 35 14 56 3 11 -5 32 -20 45 -33z m-1469 8 c6 0 7 6 3 13 -5 8 -2 8 9 -2 20 -16 23 -36 5 -25 -7 4 -5 -2 5 -13 19 -22 22 -49 6 -58 -6 -4 -8 -13 -5 -20 8 -21 -43 -66 -63 -56 -19 11 -71 -28 -71 -53 0 -8 -5 -18 -11 -22 -6 -3 -9 -15 -6 -25 3 -11 1 -19 -4 -19 -12 0 -11 27 1 51 8 14 7 19 -2 19 -8 1 -5 7 7 16 11 8 21 27 21 42 3 37 15 72 25 72 5 0 9 7 9 15 0 8 5 15 11 15 5 0 8 4 5 9 -4 5 8 12 25 16 22 5 28 10 20 18 -6 6 -11 16 -10 22 0 5 3 4 6 -2 2 -7 9 -13 14 -13z m305 -272 c5 -8 2 -9 -10 -5 -10 4 -15 3 -11 -3 3 -6 25 -10 48 -10 60 0 74 -12 59 -45 -9 -18 -18 -25 -28 -21 -18 7 -94 -48 -94 -67 0 -7 -9 -18 -21 -25 -13 -8 -18 -19 -15 -29 4 -11 2 -14 -9 -9 -8 3 -15 1 -15 -5 0 -19 -60 -33 -164 -38 -12 -1 -16 -6 -12 -17 5 -12 2 -15 -10 -10 -8 3 -20 6 -25 6 -6 0 -7 5 -4 10 3 6 0 10 -7 10 -20 0 -20 70 1 71 45 2 110 0 140 -4 45 -6 61 0 61 24 0 11 10 23 25 29 34 13 31 64 -5 80 -24 11 -24 12 -6 26 15 10 23 11 33 2 10 -8 12 -8 8 4 -4 9 3 19 17 26 30 14 35 14 44 0z m-1796 -463 c0 -8 5 -15 10 -15 6 0 10 -5 10 -10 0 -6 10 -24 22 -40 17 -24 19 -32 8 -45 -10 -12 -10 -15 4 -15 9 0 16 5 16 12 0 6 3 8 7 5 3 -4 -2 -16 -12 -27 -13 -14 -14 -19 -4 -16 8 4 23 -7 37 -26 20 -30 21 -33 5 -39 -10 -4 -21 -5 -25 -2 -5 2 -8 0 -8 -5 0 -14 -54 -22 -61 -10 -4 6 -12 9 -18 7 -8 -3 -5 -12 9 -26 40 -43 45 -42 -157 -43 -78 0 -144 -4 -148 -9 -7 -13 -47 -1 -42 13 3 6 10 10 16 9 6 -2 11 4 11 12 0 8 3 14 8 13 4 -1 23 6 42 14 19 9 29 17 23 17 -7 1 -13 10 -13 22 0 13 4 18 12 13 6 -4 17 0 23 10 10 13 18 14 36 7 13 -5 18 -10 10 -10 -8 -1 -12 -3 -9 -6 9 -9 38 7 38 21 0 8 5 14 10 14 6 0 10 -5 10 -12 0 -9 3 -9 13 1 10 10 8 15 -6 26 -18 13 -17 14 2 20 12 3 21 11 21 16 0 6 12 21 26 34 14 13 27 30 28 38 5 34 46 62 46 32z m2975 -151 c11 -3 30 -19 42 -37 22 -30 26 -31 90 -32 59 0 72 -3 94 -25 50 -48 182 -165 203 -180 12 -8 37 -29 56 -47 19 -18 41 -33 48 -33 6 0 12 -7 12 -15 0 -8 6 -15 13 -15 19 0 123 -104 130 -129 5 -20 -10 -28 -38 -21 -5 2 -32 2 -58 1 -27 -1 -55 3 -63 10 -8 6 -14 7 -14 2 0 -19 -46 -30 -123 -31 -43 0 -81 -3 -84 -5 -2 -3 -18 -1 -34 3 -27 8 -29 7 -29 -21 0 -20 -5 -29 -17 -30 -19 -2 -26 -1 -153 6 -91 5 -144 -1 -134 -16 3 -5 -4 -10 -15 -10 -12 -1 -27 -2 -33 -3 -7 -1 -16 -5 -19 -9 -3 -4 -26 -10 -50 -12 -76 -8 -109 -16 -109 -24 0 -5 -10 -9 -22 -9 -40 -1 -83 -14 -95 -30 -7 -9 -13 -12 -13 -8 0 4 -6 4 -12 -1 -7 -4 -19 -8 -26 -9 -8 -2 -21 -9 -30 -17 -10 -8 -32 -22 -51 -32 -26 -13 -31 -19 -20 -26 10 -6 3 -9 -21 -9 -71 0 -108 -11 -114 -33 -3 -12 -8 -18 -11 -15 -4 4 -15 -2 -25 -12 -10 -10 -43 -23 -74 -30 -58 -12 -70 -24 -35 -35 29 -9 18 -28 -22 -38 -19 -4 -50 -16 -69 -25 -19 -9 -39 -17 -45 -17 -5 0 -23 -15 -39 -32 -15 -18 -37 -33 -48 -33 -18 0 -19 -2 -7 -17 12 -15 12 -16 -3 -10 -10 3 -18 3 -18 -1 0 -4 -14 -13 -31 -21 -17 -7 -33 -20 -36 -28 -10 -25 -53 -63 -72 -63 -20 0 -44 -23 -47 -46 -1 -8 2 -14 7 -14 5 0 9 -4 9 -10 0 -5 -7 -10 -15 -10 -23 0 -56 -21 -92 -58 -20 -21 -37 -31 -44 -26 -8 5 -10 2 -7 -7 4 -9 -4 -19 -18 -26 -13 -6 -22 -7 -18 -2 8 14 -10 11 -31 -5 -11 -8 -25 -12 -32 -9 -18 7 -16 -12 2 -27 8 -7 15 -20 15 -28 0 -13 -3 -12 -14 3 -13 18 -14 17 -21 -13 -6 -30 -14 -36 -42 -33 -9 1 -11 -8 -7 -29 5 -23 3 -30 -10 -30 -9 0 -16 5 -16 11 0 5 -4 8 -8 5 -5 -3 -8 -19 -7 -36 1 -16 -2 -30 -6 -30 -5 0 -19 -16 -32 -35 -18 -26 -26 -32 -35 -23 -13 13 -14 8 -15 -39 0 -13 -6 -23 -13 -23 -8 0 -14 -4 -14 -10 0 -5 -11 -10 -25 -10 -25 0 -31 -13 -26 -62 1 -10 -4 -18 -13 -18 -9 0 -16 -4 -16 -8 0 -4 -12 -9 -27 -10 -16 -1 -33 -9 -39 -17 -6 -8 -14 -12 -17 -8 -4 3 -7 -1 -7 -9 0 -9 5 -18 11 -20 5 -2 7 -11 4 -20 -7 -16 -40 -18 -65 -3 -7 4 -16 2 -20 -5 -11 -18 -41 -5 -34 15 5 11 2 14 -10 9 -9 -3 -16 -1 -16 5 0 6 9 11 20 11 21 0 28 19 8 21 -10 0 -10 2 0 6 6 2 9 9 6 15 -3 5 2 16 13 23 10 7 25 29 33 49 7 20 19 35 24 34 23 -5 58 24 53 43 -3 11 0 19 8 19 7 0 16 7 19 16 4 10 13 13 27 9 18 -6 20 -4 14 14 -5 15 -2 21 9 21 9 0 16 4 16 10 0 5 -8 6 -17 3 -16 -6 -16 -5 -5 10 8 8 20 13 28 10 8 -3 14 1 14 10 0 8 13 26 29 40 17 14 27 28 24 31 -4 3 -1 6 6 6 7 0 10 4 7 9 -3 5 15 30 39 57 29 31 42 51 35 58 -6 6 -6 14 1 22 7 8 7 14 -1 19 -13 8 -13 55 0 55 6 0 10 -7 10 -15 0 -8 5 -15 10 -15 6 0 10 5 10 10 0 6 7 10 15 10 14 0 19 12 16 33 -2 12 47 8 52 -5 3 -7 4 -2 3 12 -1 14 -5 31 -9 37 -8 12 16 36 26 26 4 -3 7 -1 7 5 0 6 -5 14 -10 17 -6 4 -7 11 -4 17 4 6 -1 6 -14 -1 -21 -11 -39 0 -28 17 3 5 6 31 7 60 2 33 8 53 17 57 9 3 12 14 7 35 -8 38 2 39 16 3 7 -16 13 -23 16 -15 3 6 10 12 17 12 7 0 20 16 29 35 21 44 21 51 2 35 -13 -11 -15 -10 -10 4 3 9 7 23 10 32 4 13 8 14 20 4 19 -16 37 -3 29 22 -5 16 -3 20 8 16 9 -4 14 1 14 13 0 22 -7 24 -24 7 -7 -7 -12 -9 -12 -6 0 3 16 18 35 32 20 15 34 24 33 19 -3 -8 5 -13 22 -13 5 0 7 6 4 13 -3 8 9 29 26 47 17 18 30 38 29 44 -3 27 2 36 22 36 14 0 19 5 16 15 -4 8 -2 17 3 20 6 4 10 1 10 -5 0 -7 5 -10 12 -8 7 3 12 21 12 41 0 31 3 36 18 31 12 -3 18 0 18 10 0 9 4 16 10 16 5 0 7 7 4 15 -5 12 3 15 42 13 31 -2 48 1 47 8 -1 6 14 17 33 24 18 8 34 17 34 22 0 4 7 8 15 8 10 0 15 10 15 30 0 17 -5 30 -11 30 -5 0 -7 -4 -4 -10 3 -5 1 -10 -6 -10 -8 0 -8 -4 1 -15 10 -12 10 -15 -3 -15 -8 0 -17 6 -20 13 -5 16 -37 -9 -37 -29 0 -8 -6 -11 -15 -8 -8 4 -22 1 -30 -6 -15 -13 -55 -5 -55 11 0 6 -4 7 -10 4 -5 -3 -10 2 -10 12 0 15 -2 16 -10 3 -9 -13 -10 -13 -10 1 0 8 6 21 13 28 10 11 10 13 0 7 -21 -12 -15 8 7 21 12 8 21 9 25 3 3 -6 10 -10 16 -10 16 0 10 23 -13 47 -12 13 -17 23 -12 23 12 0 33 -24 61 -71 17 -27 20 -38 11 -47 -8 -8 -8 -12 -1 -12 6 0 18 11 27 25 9 14 23 25 31 25 8 0 15 5 15 10 0 6 9 10 20 10 11 0 20 5 20 10 0 20 -44 4 -79 -29 -11 -10 -16 -10 -19 -2 -5 14 16 41 32 41 19 0 59 47 51 59 -3 6 1 11 11 11 13 0 14 3 5 14 -9 11 -8 15 4 20 8 3 14 11 13 18 -2 9 13 15 42 18 48 5 59 24 27 44 -14 8 -20 8 -27 -4 -8 -12 -10 -12 -16 3 -8 23 -25 22 -52 -3 l-22 -20 4 30 c2 16 -1 30 -5 30 -5 0 -9 5 -9 10 0 6 7 10 15 10 14 0 19 11 16 35 0 6 10 11 24 11 32 2 32 -10 0 -38 -14 -12 -25 -29 -25 -37 0 -11 10 -5 31 17 32 34 59 42 59 16 0 -8 5 -12 10 -9 6 4 8 15 5 26 -8 25 -1 24 28 -5 20 -20 22 -26 10 -42 -7 -9 -16 -14 -20 -10 -4 4 -1 11 7 16 8 5 11 12 7 16 -4 4 -15 0 -24 -9 -13 -13 -14 -19 -3 -31 7 -9 18 -16 25 -16 8 0 15 -3 18 -7 2 -5 3 -3 1 3 -1 6 8 12 22 12 28 0 31 -12 7 -28 -15 -9 -13 -10 11 -5 25 5 28 4 23 -14 -6 -23 8 -38 18 -20 4 6 18 8 31 5 15 -4 24 -2 24 5 0 7 3 9 7 5 4 -3 13 4 20 16 l14 23 -7 -24 c-5 -21 -4 -22 8 -10 22 20 1 52 -24 38 -11 -6 -18 -6 -18 0 0 5 8 12 18 16 16 6 16 7 0 16 -10 6 -18 15 -18 20 0 6 4 8 9 5 5 -4 11 -3 14 1 2 5 2 2 0 -5 -1 -8 3 -12 9 -9 7 2 12 10 11 16 -2 6 1 11 7 11 6 0 10 -7 10 -15 0 -8 5 -15 11 -15 6 0 9 6 6 14 -3 8 2 16 14 19 10 3 19 11 18 19 0 10 -2 10 -6 1 -9 -25 -22 -13 -13 12 5 14 7 33 4 42 -2 10 1 7 8 -7 18 -35 31 -47 46 -42 6 2 12 -1 12 -8 0 -6 5 -8 11 -4 7 4 9 0 5 -14 -8 -25 7 -37 26 -20 31 29 58 39 77 28 20 -10 81 5 81 20 0 4 24 17 53 29 58 25 114 50 137 62 18 9 76 11 105 3z m-1055 -84 c0 -5 9 -10 20 -10 17 0 19 -3 11 -19 -6 -10 -7 -21 -4 -25 4 -4 8 -15 10 -25 2 -15 -3 -19 -20 -17 -19 2 -22 -2 -20 -33 1 -20 2 -38 2 -41 1 -2 8 6 17 18 33 48 41 15 11 -46 -10 -21 -16 -23 -51 -18 -50 8 -62 16 -45 28 10 6 7 7 -8 3 -14 -4 -23 -2 -23 4 0 6 7 11 16 11 24 0 11 23 -17 31 l-24 7 24 1 c18 1 22 5 18 21 -3 11 -1 18 4 14 5 -3 9 9 9 25 0 17 5 31 10 31 6 0 10 -7 10 -16 0 -8 4 -13 9 -9 5 3 13 1 16 -5 5 -8 11 -7 21 1 11 9 14 9 14 -1 0 -8 3 -10 6 -7 9 8 -16 67 -27 67 -5 0 -9 -10 -9 -22 0 -18 -2 -20 -9 -9 -6 9 -5 21 2 33 13 20 27 24 27 8z m-1885 -240 c5 -8 12 -7 22 1 11 10 16 10 22 1 5 -9 16 -9 44 0 24 7 44 8 58 2 20 -9 19 -11 -18 -37 -21 -15 -39 -23 -41 -18 -5 15 -32 1 -32 -16 0 -10 -7 -14 -20 -10 -13 3 -20 0 -20 -9 0 -12 -40 -20 -72 -15 -5 0 -8 -4 -8 -10 0 -5 -5 -7 -11 -3 -6 3 -15 0 -20 -7 -6 -10 -9 -10 -9 -2 0 7 -7 10 -15 7 -10 -4 -15 0 -15 16 0 11 -4 19 -8 16 -4 -2 -9 5 -9 16 -1 11 1 18 4 14 3 -3 15 4 25 17 11 12 23 22 26 23 4 0 14 3 22 7 13 5 41 12 62 16 4 0 10 -4 13 -9z m139 -342 c-4 -6 -2 -8 4 -4 6 3 13 2 17 -4 3 -5 15 -10 26 -10 11 0 19 -7 19 -17 0 -15 2 -16 10 -3 8 13 10 13 10 -1 0 -9 6 -22 14 -28 20 -17 28 -51 10 -44 -9 3 -14 -1 -14 -12 0 -12 -5 -15 -20 -10 -11 4 -20 2 -20 -4 0 -6 -5 -11 -11 -11 -6 0 -9 9 -6 20 3 13 0 20 -9 20 -8 0 -17 0 -21 1 -4 0 -9 -4 -11 -10 -2 -7 3 -8 14 -4 12 4 15 3 10 -5 -11 -18 -36 -14 -37 6 -1 14 -2 14 -6 1 -4 -18 -48 -15 -60 4 -3 6 -1 7 5 3 12 -7 13 35 1 44 -9 7 8 50 20 50 6 0 7 -8 4 -17 -6 -15 -4 -16 9 -6 8 7 19 9 23 5 5 -4 5 -1 1 6 -9 16 3 54 15 46 5 -3 6 -10 3 -16z m4234 -2040 c18 -18 15 -50 -18 -148 -43 -128 -63 -276 -64 -465 -1 -159 -1 -160 22 -163 55 -8 188 111 253 225 84 148 143 213 196 213 11 0 37 -12 56 -27 20 -16 46 -35 58 -43 20 -15 22 -28 29 -174 8 -187 13 -197 82 -177 54 16 188 83 247 124 74 50 129 106 160 161 115 201 248 229 411 87 l35 -30 -40 -36 c-58 -51 -128 -89 -227 -124 -48 -16 -105 -39 -128 -51 -78 -40 -77 -100 2 -139 84 -40 165 -25 348 63 80 39 120 46 120 21 0 -27 -44 -62 -131 -106 -182 -91 -248 -105 -329 -68 -58 26 -96 63 -126 121 l-24 47 -42 -18 c-303 -132 -301 -129 -272 -284 37 -198 29 -247 -43 -283 -59 -30 -212 -27 -276 5 -62 30 -87 70 -87 136 0 66 23 101 112 172 123 98 168 146 168 180 0 39 -19 93 -32 93 -6 0 -40 -31 -77 -69 -134 -140 -196 -155 -228 -56 -13 41 -40 42 -102 3 -41 -25 -67 -33 -114 -36 -57 -4 -64 -2 -87 23 -22 24 -25 36 -28 118 -1 51 3 152 11 225 7 72 11 132 9 132 -2 0 -38 -31 -79 -70 -64 -60 -132 -114 -220 -175 l-22 -15 21 -41 c78 -150 -61 -402 -235 -425 -69 -10 -90 -33 -176 -203 -79 -154 -93 -173 -118 -148 -23 23 -7 71 72 222 35 66 66 136 70 155 3 20 -2 73 -13 126 -24 111 -18 152 33 258 42 86 73 119 107 114 37 -5 34 -39 -8 -89 -53 -64 -67 -102 -67 -192 -1 -130 31 -129 78 1 16 42 46 113 67 157 30 61 38 88 33 112 -4 21 1 44 14 70 11 21 32 83 47 138 41 155 89 237 129 221 22 -8 17 -31 -46 -219 -27 -82 -47 -153 -44 -158 20 -31 135 43 269 174 94 93 118 134 136 237 14 82 32 110 68 110 16 0 33 -5 40 -12z m-1207 -108 c31 -17 22 -36 -29 -58 -142 -61 -477 -133 -734 -157 -97 -9 -101 -14 -83 -100 8 -38 15 -88 15 -111 0 -23 3 -68 6 -100 l6 -59 202 3 c280 6 411 -18 411 -74 0 -23 -29 -24 -207 -5 -123 13 -321 3 -385 -20 -34 -11 -55 -48 -88 -149 -53 -163 -194 -360 -257 -360 -51 0 -110 55 -155 144 -43 85 -41 228 3 243 15 5 30 -35 49 -125 18 -90 48 -149 82 -165 24 -11 29 -8 74 42 62 66 122 189 156 317 20 79 26 130 30 249 6 209 -14 268 -83 251 -40 -10 -162 -137 -204 -211 -18 -33 -40 -68 -48 -77 -21 -25 -50 -22 -63 6 -9 18 -7 31 9 62 31 62 107 157 171 216 75 70 120 83 356 103 215 19 405 53 535 95 146 48 199 57 231 40z m-3715 -246 c-3 -30 -22 -141 -41 -247 -67 -360 -68 -437 -11 -437 36 0 76 38 169 164 107 142 134 166 193 166 42 0 46 3 59 33 8 19 23 88 34 153 21 123 46 210 62 220 6 3 17 0 26 -7 13 -12 15 -31 10 -124 -4 -87 -15 -148 -51 -287 -54 -208 -57 -238 -22 -238 47 0 207 196 237 291 32 99 121 209 169 209 46 0 38 -34 -35 -150 -57 -89 -49 -105 83 -175 91 -49 122 -87 122 -152 0 -64 -31 -117 -100 -167 -69 -51 -135 -79 -175 -74 -76 9 -45 85 43 104 81 18 145 75 158 141 5 25 0 33 -32 58 -55 42 -182 105 -199 99 -8 -3 -26 -27 -41 -52 -70 -120 -224 -239 -274 -212 -11 6 -20 15 -20 20 0 25 -36 5 -98 -53 -96 -90 -126 -109 -164 -105 -26 2 -37 10 -50 37 -26 51 -31 54 -73 37 -21 -9 -46 -16 -56 -16 -23 0 -55 34 -76 82 -9 21 -21 38 -25 38 -8 0 -26 -36 -65 -130 -22 -54 -85 -155 -121 -192 -32 -34 -71 -36 -99 -5 -28 30 -33 50 -38 147 -5 122 -19 127 -84 31 -60 -88 -102 -121 -156 -121 -64 0 -80 27 -72 123 5 77 39 191 64 219 27 30 9 48 -46 48 -55 0 -99 28 -127 82 -8 16 -26 33 -40 38 -77 30 -152 -95 -228 -378 -35 -127 -65 -204 -85 -217 -15 -9 -31 30 -31 76 l0 43 -42 -41 c-94 -90 -148 -84 -148 14 0 22 -6 48 -14 58 -12 17 -16 17 -31 5 -9 -7 -27 -35 -41 -62 -13 -26 -38 -63 -55 -83 -27 -31 -37 -36 -68 -33 l-36 3 -3 75 c-4 98 14 212 44 279 28 63 112 179 156 216 50 42 109 29 134 -30 14 -36 16 -24 -27 -260 -5 -33 -9 -83 -7 -110 3 -48 4 -50 33 -50 23 0 37 10 66 49 47 62 90 151 117 241 25 83 98 192 169 254 85 73 126 69 181 -19 58 -93 77 -95 216 -28 140 67 166 49 72 -51 -96 -102 -151 -226 -144 -328 2 -40 6 -48 24 -51 51 -7 191 224 219 361 14 71 32 101 65 110 29 8 43 -8 36 -39 -21 -97 -27 -137 -36 -251 -11 -138 -5 -243 15 -243 51 0 201 302 254 510 10 41 31 147 46 235 35 216 32 203 58 207 52 8 60 -1 53 -58z m-2650 -98 c17 -13 19 -29 22 -148 2 -74 -1 -174 -6 -223 -7 -62 -7 -94 0 -102 19 -23 259 -9 310 18 23 12 35 58 58 219 25 176 46 230 90 230 40 0 44 -25 17 -122 -28 -99 -70 -353 -111 -658 -35 -263 -38 -288 -28 -294 5 -3 31 17 57 44 27 28 55 50 62 50 23 0 14 -45 -23 -106 -69 -115 -121 -145 -143 -83 -13 38 -14 330 -1 409 5 30 12 87 16 125 9 94 2 100 -114 92 -109 -7 -186 -24 -213 -46 -16 -13 -25 -39 -36 -102 -18 -104 -93 -334 -136 -414 -23 -42 -39 -61 -55 -63 -12 -2 -24 3 -27 10 -3 7 27 108 66 223 62 181 72 220 72 280 0 39 -3 82 -7 97 -7 22 -3 31 23 54 43 38 61 105 68 255 7 149 2 179 -30 179 -33 0 -84 -57 -142 -158 -36 -62 -56 -88 -72 -90 -90 -13 47 228 176 310 50 31 78 35 107 14z"
       id="path8"
       style="fill:#002e53;fill-opacity:1" />
    <path
       d="M6018 7702 c-22 -4 -22 -11 -1 -34 15 -17 14 -19 -11 -43 -26 -24 -29 -25 -58 -10 -38 18 -36 18 -40 0 -3 -14 -5 -14 -25 0 -13 9 -23 26 -23 37 0 32 -12 14 -14 -21 -1 -17 0 -28 2 -26 3 3 10 -2 16 -10 16 -20 71 -33 64 -14 -4 11 4 14 36 13 60 -3 60 -3 45 -20 -11 -13 -9 -14 14 -9 33 9 34 -1 5 -32 -21 -22 -21 -24 -3 -17 11 4 31 18 44 31 23 22 39 28 70 23 9 -1 12 4 8 14 -4 9 -2 16 3 16 18 0 10 20 -7 20 -26 1 -66 37 -60 55 9 23 -23 36 -65 27z"
       id="path10"
       style="fill:#002e53;fill-opacity:1" />
    <path
       d="M5658 7633 c-10 -2 -18 -9 -18 -14 0 -5 -6 -9 -14 -9 -7 0 -19 -7 -26 -15 -8 -10 -21 -13 -33 -9 -13 4 -17 2 -13 -5 4 -7 -1 -11 -13 -11 -12 0 -21 4 -21 10 0 5 -7 6 -17 3 -10 -4 -14 -2 -10 4 5 7 -1 9 -15 5 -17 -4 -20 -2 -15 12 5 12 3 16 -5 14 -21 -7 -18 -48 3 -48 11 0 19 -7 19 -15 0 -13 -4 -14 -20 -5 -16 9 -18 8 -14 -5 4 -8 1 -22 -6 -30 -10 -13 -9 -15 9 -15 18 0 21 -4 16 -22 -5 -20 -4 -21 5 -5 15 24 30 21 30 -5 0 -21 2 -20 22 8 20 28 27 31 79 31 44 1 65 6 86 23 23 18 24 21 8 19 -11 -2 -25 0 -32 4 -17 11 -5 37 17 37 11 0 22 5 25 10 7 11 -12 41 -24 39 -3 -1 -14 -3 -23 -6z"
       id="path12"
       style="fill:#002e53;fill-opacity:1" />
    <path
       d="M10528 2720 c-43 -23 -98 -87 -98 -113 0 -17 5 -18 37 -12 57 10 162 55 194 83 28 23 29 25 13 43 -23 25 -97 24 -146 -1z"
       id="path14"
       style="fill:#002e53;fill-opacity:1" />
    <path
       d="M9721 2643 c-55 -57 -125 -157 -147 -208 -32 -77 -4 -120 54 -85 39 24 116 126 149 197 26 57 29 133 5 141 -8 2 -35 -18 -61 -45z"
       id="path16"
       style="fill:#002e53;fill-opacity:1" />
    <path
       d="M8775 2507 c-9 -14 -25 -59 -37 -101 -11 -42 -36 -102 -56 -133 -53 -88 -64 -112 -58 -128 9 -24 50 -17 94 15 98 71 144 208 109 324 -15 48 -31 55 -52 23z"
       id="path18"
       style="fill:#002e53;fill-opacity:1" />
    <path
       d="M9784 2181 c-41 -31 -100 -104 -128 -159 -16 -31 -16 -36 -2 -58 20 -29 59 -50 120 -64 57 -12 110 6 122 42 12 37 7 123 -11 185 -27 93 -39 100 -101 54z"
       id="path20"
       style="fill:#002e53;fill-opacity:1" />
    <path
       d="M4720 2334 c-94 -88 -190 -228 -190 -277 0 -101 208 106 250 249 9 28 9 47 2 59 -8 16 -15 13 -62 -31z"
       id="path22"
       style="fill:#002e53;fill-opacity:1" />
    <path
       d="M2890 2243 c-46 -56 -108 -190 -132 -286 -22 -88 -20 -117 7 -117 47 0 203 350 187 423 -6 27 -28 20 -62 -20z"
       id="path24"
       style="fill:#002e53;fill-opacity:1" />
  </g>
</svg>
